<svg width="512" height="512" viewBox="-256 -256 512 512" xmlns="http://www.w3.org/2000/svg">
  <title>lulu mark — cream — use on dark backgrounds</title>
  <!-- lulu · fibonacci seed mark · 89 seeds · golden angle · transparent bg -->
  <g fill="#F5F0E6">
    <circle cx="-16.611" cy="15.217" r="16.601"/>
    <circle cx="2.785" cy="-31.737" r="16.601"/>
    <circle cx="23.741" cy="30.966" r="16.601"/>
    <circle cx="-44.367" cy="-7.848" r="16.601"/>
    <circle cx="42.503" cy="-27.037" r="16.601"/>
    <circle cx="-14.326" cy="53.290" r="16.601"/>
    <circle cx="-27.472" cy="-52.895" r="16.601"/>
    <circle cx="59.852" cy="21.858" r="16.601"/>
    <circle cx="-62.471" cy="25.787" r="16.601"/>
    <circle cx="30.195" cy="-64.524" r="16.601"/>
    <circle cx="22.362" cy="71.292" r="16.601"/>
    <circle cx="-67.520" cy="-39.129" r="16.601"/>
    <circle cx="79.331" cy="-17.441" r="16.601"/>
    <circle cx="-48.479" cy="68.956" r="16.601"/>
    <circle cx="-11.213" cy="-86.527" r="16.601"/>
    <circle cx="68.904" cy="58.072" r="16.601"/>
    <circle cx="-92.806" cy="3.838" r="16.601"/>
    <circle cx="67.749" cy="-67.419" r="16.601"/>
    <circle cx="-4.536" cy="98.092" r="16.601"/>
    <circle cx="-64.550" cy="-77.353" r="16.601"/>
    <circle cx="102.314" cy="13.766" r="16.601"/>
    <circle cx="-86.737" cy="60.349" r="16.601"/>
    <circle cx="23.713" cy="-105.406" r="16.601"/>
    <circle cx="54.871" cy="95.757" r="16.601"/>
    <circle cx="-107.311" cy="-34.235" r="16.601"/>
    <circle cx="104.279" cy="-48.179" r="16.601"/>
    <circle cx="-45.192" cy="107.984" r="16.601"/>
    <circle cx="-40.346" cy="-112.172" r="16.601"/>
    <circle cx="107.389" cy="56.440" r="16.601"/>
    <circle cx="-119.315" cy="31.451" r="16.601"/>
    <circle cx="67.838" cy="-105.503" r="16.601"/>
    <circle cx="21.585" cy="125.596" r="16.601"/>
    <circle cx="-102.317" cy="-79.240" r="16.601"/>
    <circle cx="130.911" cy="-10.846" r="16.601"/>
    <circle cx="-90.506" cy="97.834" r="16.601"/>
    <circle cx="0.659" cy="-135.166" r="16.601"/>
    <circle cx="92.070" cy="101.494" r="16.601"/>
    <circle cx="-138.279" cy="-12.816" r="16.601"/>
    <circle cx="112.066" cy="-85.054" r="16.601"/>
    <circle cx="-25.502" cy="140.179" r="16.601"/>
    <circle cx="-76.828" cy="-122.088" r="16.601"/>
    <circle cx="140.806" cy="38.589" r="16.601"/>
    <circle cx="-131.430" cy="67.448" r="16.601"/>
    <circle cx="51.946" cy="-140.115" r="16.601"/>
    <circle cx="56.980" cy="139.969" r="16.601"/>
    <circle cx="-138.072" cy="-65.435" r="16.601"/>
    <circle cx="147.589" cy="-45.503" r="16.601"/>
    <circle cx="-78.917" cy="134.658" r="16.601"/>
    <circle cx="-33.109" cy="-154.181" r="16.601"/>
    <circle cx="129.866" cy="92.251" r="16.601"/>
    <circle cx="-159.647" cy="19.897" r="16.601"/>
    <circle cx="105.296" cy="-123.706" r="16.601"/>
    <circle cx="5.977" cy="163.897" r="16.601"/>
    <circle cx="-116.199" cy="-117.912" r="16.601"/>
    <circle cx="166.854" cy="8.531" r="16.601"/>
    <circle cx="-129.962" cy="107.381" r="16.601"/>
    <circle cx="23.502" cy="-168.451" r="16.601"/>
    <circle cx="97.300" cy="141.309" r="16.601"/>
    <circle cx="-168.634" cy="-38.802" r="16.601"/>
    <circle cx="151.827" cy="-86.019" r="16.601"/>
    <circle cx="-54.294" cy="167.363" r="16.601"/>
    <circle cx="-73.613" cy="-161.390" r="16.601"/>
    <circle cx="164.609" cy="69.836" r="16.601"/>
    <circle cx="-169.883" cy="60.169" r="16.601"/>
    <circle cx="85.282" cy="-160.360" r="16.601"/>
    <circle cx="45.786" cy="177.199" r="16.601"/>
    <circle cx="-154.615" cy="-100.486" r="16.601"/>
    <circle cx="183.238" cy="-30.572" r="16.601"/>
    <circle cx="-115.302" cy="147.390" r="16.601"/>
    <circle cx="-14.646" cy="-187.913" r="16.601"/>
    <circle cx="138.713" cy="129.584" r="16.601"/>
    <circle cx="-191.147" cy="-1.865" r="16.601"/>
    <circle cx="143.190" cy="-128.627" r="16.601"/>
    <circle cx="-18.825" cy="192.877" r="16.601"/>
    <circle cx="-117.189" cy="-155.981" r="16.601"/>
    <circle cx="193.049" cy="36.094" r="16.601"/>
    <circle cx="-167.823" cy="104.469" r="16.601"/>
    <circle cx="53.524" cy="-191.627" r="16.601"/>
    <circle cx="90.551" cy="178.589" r="16.601"/>
    <circle cx="-188.587" cy="-70.964" r="16.601"/>
    <circle cx="188.159" cy="-75.529" r="16.601"/>
    <circle cx="-88.263" cy="183.917" r="16.601"/>
    <circle cx="-59.511" cy="-196.422" r="16.601"/>
    <circle cx="177.624" cy="105.265" r="16.601"/>
    <circle cx="-203.279" cy="42.616" r="16.601"/>
    <circle cx="121.816" cy="-169.726" r="16.601"/>
    <circle cx="24.969" cy="208.638" r="16.601"/>
    <circle cx="-160.258" cy="-137.762" r="16.601"/>
    <circle cx="212.423" cy="-6.709" r="16.601"/>
  </g>
</svg>