<svg width="1024" height="1024" viewBox="-512 -512 1024 1024" xmlns="http://www.w3.org/2000/svg">
  <title>lulu mark — marigold large — transparent bg</title>
  <g fill="#E89B23">
    <circle cx="-33.223" cy="30.435" r="33.202"/>
    <circle cx="5.571" cy="-63.475" r="33.202"/>
    <circle cx="47.482" cy="61.932" r="33.202"/>
    <circle cx="-88.735" cy="-15.696" r="33.202"/>
    <circle cx="85.007" cy="-54.074" r="33.202"/>
    <circle cx="-28.651" cy="106.580" r="33.202"/>
    <circle cx="-54.943" cy="-105.790" r="33.202"/>
    <circle cx="119.705" cy="43.716" r="33.202"/>
    <circle cx="-124.942" cy="51.574" r="33.202"/>
    <circle cx="60.389" cy="-129.049" r="33.202"/>
    <circle cx="44.723" cy="142.584" r="33.202"/>
    <circle cx="-135.041" cy="-78.259" r="33.202"/>
    <circle cx="158.663" cy="-34.882" r="33.202"/>
    <circle cx="-96.958" cy="137.912" r="33.202"/>
    <circle cx="-22.425" cy="-173.054" r="33.202"/>
    <circle cx="137.808" cy="116.145" r="33.202"/>
    <circle cx="-185.612" cy="7.676" r="33.202"/>
    <circle cx="135.497" cy="-134.838" r="33.202"/>
    <circle cx="-9.072" cy="196.185" r="33.202"/>
    <circle cx="-129.101" cy="-154.706" r="33.202"/>
    <circle cx="204.629" cy="27.532" r="33.202"/>
    <circle cx="-173.473" cy="120.698" r="33.202"/>
    <circle cx="47.426" cy="-210.812" r="33.202"/>
    <circle cx="109.742" cy="191.514" r="33.202"/>
    <circle cx="-214.623" cy="-68.470" r="33.202"/>
    <circle cx="208.557" cy="-96.359" r="33.202"/>
    <circle cx="-90.384" cy="215.967" r="33.202"/>
    <circle cx="-80.692" cy="-224.344" r="33.202"/>
    <circle cx="214.777" cy="112.881" r="33.202"/>
    <circle cx="-238.631" cy="62.902" r="33.202"/>
    <circle cx="135.675" cy="-211.006" r="33.202"/>
    <circle cx="43.170" cy="251.193" r="33.202"/>
    <circle cx="-204.635" cy="-158.481" r="33.202"/>
    <circle cx="261.822" cy="-21.691" r="33.202"/>
    <circle cx="-181.012" cy="195.669" r="33.202"/>
    <circle cx="1.319" cy="-270.333" r="33.202"/>
    <circle cx="184.140" cy="202.988" r="33.202"/>
    <circle cx="-276.559" cy="-25.631" r="33.202"/>
    <circle cx="224.132" cy="-170.108" r="33.202"/>
    <circle cx="-51.003" cy="280.358" r="33.202"/>
    <circle cx="-153.656" cy="-244.175" r="33.202"/>
    <circle cx="281.612" cy="77.178" r="33.202"/>
    <circle cx="-262.860" cy="134.895" r="33.202"/>
    <circle cx="103.891" cy="-280.229" r="33.202"/>
    <circle cx="113.959" cy="279.938" r="33.202"/>
    <circle cx="-276.143" cy="-130.869" r="33.202"/>
    <circle cx="295.178" cy="-91.006" r="33.202"/>
    <circle cx="-157.834" cy="269.315" r="33.202"/>
    <circle cx="-66.217" cy="-308.362" r="33.202"/>
    <circle cx="259.733" cy="184.502" r="33.202"/>
    <circle cx="-319.294" cy="39.793" r="33.202"/>
    <circle cx="210.592" cy="-247.413" r="33.202"/>
    <circle cx="11.954" cy="327.795" r="33.202"/>
    <circle cx="-232.398" cy="-235.825" r="33.202"/>
    <circle cx="333.708" cy="17.063" r="33.202"/>
    <circle cx="-259.923" cy="214.761" r="33.202"/>
    <circle cx="47.004" cy="-336.902" r="33.202"/>
    <circle cx="194.600" cy="282.619" r="33.202"/>
    <circle cx="-337.269" cy="-77.605" r="33.202"/>
    <circle cx="303.654" cy="-172.038" r="33.202"/>
    <circle cx="-108.588" cy="334.726" r="33.202"/>
    <circle cx="-147.226" cy="-322.780" r="33.202"/>
    <circle cx="329.218" cy="139.671" r="33.202"/>
    <circle cx="-339.767" cy="120.338" r="33.202"/>
    <circle cx="170.563" cy="-320.720" r="33.202"/>
    <circle cx="91.571" cy="354.397" r="33.202"/>
    <circle cx="-309.230" cy="-200.971" r="33.202"/>
    <circle cx="366.476" cy="-61.143" r="33.202"/>
    <circle cx="-230.603" cy="294.780" r="33.202"/>
    <circle cx="-29.291" cy="-375.826" r="33.202"/>
    <circle cx="277.426" cy="259.168" r="33.202"/>
    <circle cx="-382.295" cy="-3.730" r="33.202"/>
    <circle cx="286.380" cy="-257.254" r="33.202"/>
    <circle cx="-37.650" cy="385.753" r="33.202"/>
    <circle cx="-234.378" cy="-311.962" r="33.202"/>
    <circle cx="386.099" cy="72.187" r="33.202"/>
    <circle cx="-335.646" cy="208.939" r="33.202"/>
    <circle cx="107.047" cy="-383.255" r="33.202"/>
    <circle cx="181.102" cy="357.177" r="33.202"/>
    <circle cx="-377.173" cy="-141.929" r="33.202"/>
    <circle cx="376.318" cy="-151.058" r="33.202"/>
    <circle cx="-176.526" cy="367.834" r="33.202"/>
    <circle cx="-119.023" cy="-392.845" r="33.202"/>
    <circle cx="355.248" cy="210.530" r="33.202"/>
    <circle cx="-406.558" cy="85.231" r="33.202"/>
    <circle cx="243.631" cy="-339.452" r="33.202"/>
    <circle cx="49.938" cy="417.277" r="33.202"/>
    <circle cx="-320.516" cy="-275.524" r="33.202"/>
    <circle cx="424.846" cy="-13.418" r="33.202"/>
  </g>
</svg>