<svg width="1024" height="1024" viewBox="0 0 1024 1024" xmlns="http://www.w3.org/2000/svg">
  <title>lulu app icon — dark</title>
  <rect width="1024" height="1024" rx="230" ry="230" fill="#0F0D0B"/>
  <g fill="#E89B23" transform="translate(512,512)">
    <circle cx="-28.692" cy="26.285" r="28.674"/>
    <circle cx="4.811" cy="-54.819" r="28.674"/>
    <circle cx="41.007" cy="53.487" r="28.674"/>
    <circle cx="-76.634" cy="-13.556" r="28.674"/>
    <circle cx="73.415" cy="-46.701" r="28.674"/>
    <circle cx="-24.744" cy="92.047" r="28.674"/>
    <circle cx="-47.451" cy="-91.364" r="28.674"/>
    <circle cx="103.381" cy="37.755" r="28.674"/>
    <circle cx="-107.904" cy="44.541" r="28.674"/>
    <circle cx="52.154" cy="-111.451" r="28.674"/>
    <circle cx="38.625" cy="123.141" r="28.674"/>
    <circle cx="-116.626" cy="-67.587" r="28.674"/>
    <circle cx="137.027" cy="-30.125" r="28.674"/>
    <circle cx="-83.736" cy="119.106" r="28.674"/>
    <circle cx="-19.367" cy="-149.456" r="28.674"/>
    <circle cx="119.016" cy="100.307" r="28.674"/>
    <circle cx="-160.301" cy="6.629" r="28.674"/>
    <circle cx="117.020" cy="-116.451" r="28.674"/>
    <circle cx="-7.835" cy="169.432" r="28.674"/>
    <circle cx="-111.496" cy="-133.610" r="28.674"/>
    <circle cx="176.725" cy="23.778" r="28.674"/>
    <circle cx="-149.818" cy="104.239" r="28.674"/>
    <circle cx="40.959" cy="-182.065" r="28.674"/>
    <circle cx="94.777" cy="165.399" r="28.674"/>
    <circle cx="-185.356" cy="-59.134" r="28.674"/>
    <circle cx="180.118" cy="-83.219" r="28.674"/>
    <circle cx="-78.059" cy="186.517" r="28.674"/>
    <circle cx="-69.688" cy="-193.751" r="28.674"/>
    <circle cx="185.489" cy="97.488" r="28.674"/>
    <circle cx="-206.090" cy="54.325" r="28.674"/>
    <circle cx="117.174" cy="-182.233" r="28.674"/>
    <circle cx="37.283" cy="216.939" r="28.674"/>
    <circle cx="-176.730" cy="-136.870" r="28.674"/>
    <circle cx="226.119" cy="-18.734" r="28.674"/>
    <circle cx="-156.328" cy="168.987" r="28.674"/>
    <circle cx="1.139" cy="-233.469" r="28.674"/>
    <circle cx="159.030" cy="175.308" r="28.674"/>
    <circle cx="-238.846" cy="-22.136" r="28.674"/>
    <circle cx="193.568" cy="-146.911" r="28.674"/>
    <circle cx="-44.048" cy="242.127" r="28.674"/>
    <circle cx="-132.703" cy="-210.879" r="28.674"/>
    <circle cx="243.210" cy="66.654" r="28.674"/>
    <circle cx="-227.015" cy="116.500" r="28.674"/>
    <circle cx="89.724" cy="-242.016" r="28.674"/>
    <circle cx="98.419" cy="241.765" r="28.674"/>
    <circle cx="-238.487" cy="-113.024" r="28.674"/>
    <circle cx="254.926" cy="-78.596" r="28.674"/>
    <circle cx="-136.311" cy="232.590" r="28.674"/>
    <circle cx="-57.188" cy="-266.313" r="28.674"/>
    <circle cx="224.315" cy="159.343" r="28.674"/>
    <circle cx="-275.754" cy="34.367" r="28.674"/>
    <circle cx="181.875" cy="-213.675" r="28.674"/>
    <circle cx="10.324" cy="283.095" r="28.674"/>
    <circle cx="-200.708" cy="-203.667" r="28.674"/>
    <circle cx="288.203" cy="14.736" r="28.674"/>
    <circle cx="-224.479" cy="185.476" r="28.674"/>
    <circle cx="40.594" cy="-290.961" r="28.674"/>
    <circle cx="168.063" cy="244.080" r="28.674"/>
    <circle cx="-291.277" cy="-67.022" r="28.674"/>
    <circle cx="262.246" cy="-148.578" r="28.674"/>
    <circle cx="-93.781" cy="289.081" r="28.674"/>
    <circle cx="-127.150" cy="-278.765" r="28.674"/>
    <circle cx="284.325" cy="120.625" r="28.674"/>
    <circle cx="-293.435" cy="103.929" r="28.674"/>
    <circle cx="147.304" cy="-276.985" r="28.674"/>
    <circle cx="79.084" cy="306.070" r="28.674"/>
    <circle cx="-267.063" cy="-173.566" r="28.674"/>
    <circle cx="316.502" cy="-52.805" r="28.674"/>
    <circle cx="-199.157" cy="254.583" r="28.674"/>
    <circle cx="-25.297" cy="-324.577" r="28.674"/>
    <circle cx="239.595" cy="223.827" r="28.674"/>
    <circle cx="-330.164" cy="-3.221" r="28.674"/>
    <circle cx="247.328" cy="-222.174" r="28.674"/>
    <circle cx="-32.516" cy="333.151" r="28.674"/>
    <circle cx="-202.418" cy="-269.421" r="28.674"/>
    <circle cx="333.449" cy="62.343" r="28.674"/>
    <circle cx="-289.876" cy="180.447" r="28.674"/>
    <circle cx="92.450" cy="-330.993" r="28.674"/>
    <circle cx="156.406" cy="308.471" r="28.674"/>
    <circle cx="-325.741" cy="-122.575" r="28.674"/>
    <circle cx="325.001" cy="-130.459" r="28.674"/>
    <circle cx="-152.454" cy="317.675" r="28.674"/>
    <circle cx="-102.792" cy="-339.275" r="28.674"/>
    <circle cx="306.805" cy="181.821" r="28.674"/>
    <circle cx="-351.118" cy="73.609" r="28.674"/>
    <circle cx="210.409" cy="-293.163" r="28.674"/>
    <circle cx="43.129" cy="360.375" r="28.674"/>
    <circle cx="-276.809" cy="-237.952" r="28.674"/>
    <circle cx="366.912" cy="-11.588" r="28.674"/>
  </g>
</svg>